{"title":"The Hunt For Gollum (2009) EXTENDED WEBRip XviD - DiGrX","uid":8183035,"size":341697438,"categoryP":"video","categoryS":"movies","magnet":"?xt=urn:btih:055aa0d165ac87b0bdfc40268fd2464f568ae879&amp;dn=The+Hunt+For+Gollum+%282009%29+EXTENDED+WEBRip+XviD+-+DiGrX&amp;tr=udp%3A%2F%2Ftracker.openbittorrent.com%3A80&amp;tr=udp%3A%2F%2Fopen.demonii.com%3A1337&amp;tr=udp%3A%2F%2Ftracker.coppersurfer.tk%3A6969&amp;tr=udp%3A%2F%2Fexodus.desync.com%3A6969","seeders":1,"leechers":0,"uploader":"dimigeor","files":2,"time":1361666017,"description":"The Hunt For Gollum (2009) EXTENDED WEBRip XviD - DiGrX\n\nThis version has some more scenes for about 2 minutes more.\n\n\nVideo\nID                                       : 0\nFormat                                   : MPEG-4 Visual\nFormat profile                           : Simple@L3\nFormat settings, BVOP                    : No\nFormat settings, QPel                    : No\nFormat settings, GMC                     : No warppoints\nFormat settings, Matrix                  : Default (H.263)\nCodec ID                                 : XVID\nCodec ID/Hint                            : XviD\nDuration                                 : 39mn 6s\nBit rate                                 : 1 030 Kbps\nWidth                                    : 720 pixels\nHeight                                   : 304 pixels\nDisplay aspect ratio                     : 2.35:1\nFrame rate                               : 25.000 fps\nColor space                              : YUV\nChroma subsampling                       : 4:2:0\nBit depth                                : 8 bits\nScan type                                : Progressive\nCompression mode                         : Lossy\nBits/(Pixel*Frame)                       : 0.188\nStream size                              : 288 MiB (88%)\nWriting library                          : XviD 63\n\nAudio\nID                                       : 1\nFormat                                   : MPEG Audio\nFormat version                           : Version 1\nFormat profile                           : Layer 3\nMode                                     : Joint stereo\nMode extension                           : MS Stereo\nCodec ID                                 : 55\nCodec ID/Hint                            : MP3\nDuration                                 : 39mn 5s\nBit rate mode                            : Constant\nBit rate                                 : 32.0 Kbps\nChannel(s)                               : 2 channels\nSampling rate                            : 48.0 KHz\nCompression mode                         : Lossy\nStream size                              : 34.0 MiB (10%)\nAlignment                                : Aligned on interleaves\nInterleave, duration                     : 24 ms (0.60 video frame)\nInterleave, preload duration             : 132 ms\nWriting library                          : LAME3.98.4\n","torrent":{"xt":"urn:btih:055aa0d165ac87b0bdfc40268fd2464f568ae879","amp;dn":"The+Hunt+For+Gollum+%282009%29+EXTENDED+WEBRip+XviD+-+DiGrX","amp;tr":["udp%3A%2F%2Ftracker.openbittorrent.com%3A80","udp%3A%2F%2Fopen.demonii.com%3A1337","udp%3A%2F%2Ftracker.coppersurfer.tk%3A6969","udp%3A%2F%2Fexodus.desync.com%3A6969"],"infoHash":"055aa0d165ac87b0bdfc40268fd2464f568ae879","infoHashBuffer":{"type":"Buffer","data":[5,90,160,209,101,172,135,176,189,252,64,38,143,210,70,79,86,138,232,121]},"announce":[],"urlList":[]}}